<?xml version="1.0" encoding="utf-8"?>
<!-- Generator: Adobe Illustrator 25.2.1, SVG Export Plug-In . SVG Version: 6.00 Build 0)  -->
<svg version="1.1" id="Layer_1" xmlns="http://www.w3.org/2000/svg" xmlns:xlink="http://www.w3.org/1999/xlink" x="0px" y="0px"
	 viewBox="0 0 875 270" style="enable-background:new 0 0 875 270;" xml:space="preserve">
<style type="text/css">
	.st0{opacity:0.7;}
	.st1{fill:#29ABE2;}
	.st2{fill:#0A41C9;}
	.st3{fill:#2BE0D6;}
	.st4{fill:#999999;}
</style>
<g>
	<g class="st0">
		<path class="st1" d="M116,229.6c-52.2,0-94.6-42.4-94.6-94.6S63.8,40.4,116,40.4s94.6,42.4,94.6,94.6S168.1,229.6,116,229.6z
			 M116,70.2c-35.7,0-64.8,29.1-64.8,64.8s29.1,64.8,64.8,64.8s64.8-29.1,64.8-64.8S151.7,70.2,116,70.2z"/>
	</g>
	<g class="st0">
		<path class="st2" d="M205.4,229.6c-52.2,0-94.6-42.4-94.6-94.6s42.4-94.6,94.6-94.6S300,82.8,300,135S257.5,229.6,205.4,229.6z
			 M205.4,70.2c-35.7,0-64.8,29.1-64.8,64.8s29.1,64.8,64.8,64.8s64.8-29.1,64.8-64.8S241.1,70.2,205.4,70.2z"/>
	</g>
	<g class="st0">
		<path class="st3" d="M326.2,229.6H108.8c-7.7,0-14-6.7-14-14.9c0-8.2,6.3-14.9,14-14.9h217.4c7.7,0,14,6.7,14,14.9
			C340.2,222.9,333.9,229.6,326.2,229.6z"/>
	</g>
	<g>
		<g>
			<path d="M390.4,139c0,13.2-9.7,19.8-24.5,19.8h-25.7l6.6-62.6h23.5c12.2,0,18.3,6.7,18.3,14.8c0,7.6-5,11.4-9.1,13.1
				C384.9,125.9,390.4,130.9,390.4,139z M376.4,137.6c0-4-2.7-6.2-9.1-6.2h-9.8l-1.4,14.8h10C372.8,146.2,376.4,142.5,376.4,137.6z
				 M359.9,108.7l-1.3,11.2h7.8c5.3,0,7.8-3,7.8-6.8c0-2.9-1.6-4.4-5.9-4.4H359.9z"/>
			<path d="M451,96.2l-4.2,40.1c-1.6,15.1-13.5,23.8-26.6,23.8c-13.5,0-24.1-9.2-22.5-24.3l4.2-39.6h14.4l-4.2,40.2
				c-1,8.6,4.5,10.2,8.6,10.2c4.6,0,10.9-2.1,11.7-10.7l4.2-39.7H451z"/>
			<path d="M505,139c0,13.2-9.7,19.8-24.5,19.8h-25.7l6.6-62.6h23.5c12.2,0,18.3,6.7,18.3,14.8c0,7.6-5,11.4-9.1,13.1
				C499.5,125.9,505,130.9,505,139z M491,137.6c0-4-2.7-6.2-9.1-6.2H472l-1.4,14.8h10C487.4,146.2,491,142.5,491,137.6z
				 M474.5,108.7l-1.3,11.2h7.8c5.3,0,7.8-3,7.8-6.8c0-2.9-1.6-4.4-5.9-4.4H474.5z"/>
			<path d="M561.4,139c0,13.2-9.7,19.8-24.5,19.8h-25.7l6.6-62.6h23.5c12.2,0,18.3,6.7,18.3,14.8c0,7.6-5,11.4-9.1,13.1
				C555.9,125.9,561.4,130.9,561.4,139z M547.4,137.6c0-4-2.7-6.2-9.1-6.2h-9.8l-1.4,14.8h10C543.8,146.2,547.4,142.5,547.4,137.6z
				 M530.9,108.7l-1.3,11.2h7.8c5.3,0,7.8-3,7.8-6.8c0-2.9-1.6-4.4-5.9-4.4H530.9z"/>
			<path d="M607.2,145.5l-1.4,13.2h-38.2l6.6-62.6h14.4l-5.2,49.3H607.2z"/>
			<path d="M655.4,145.5l-1.4,13.2h-40.1l6.6-62.6h39.2l-1.4,13.2h-24.9l-1.1,11.4H651l-1.4,13h-18.7l-1.2,11.8H655.4z"/>
			<path d="M691.1,159.6c-16.8,0-29.9-11.6-29.9-29c0-19.9,16.4-35.4,35.7-35.4c8.6,0,15.6,3,20.6,7.7l-9.7,9.4
				c-2.9-2.1-6.9-3.6-10.8-3.6c-10.6,0-20.8,7.9-20.9,21.6c0,9.3,7.1,15.7,17,15.7c4.6,0,9.3-2,12.5-4.5l7.6,10.6
				C707,157.3,699.3,159.6,691.1,159.6z"/>
			<path d="M783.8,124.4c0,19.9-16.4,35.2-35.7,35.2c-16.8,0-29.7-11.6-29.7-29c0-19.9,16.2-35.4,35.5-35.4
				C770.7,95.3,783.8,107.1,783.8,124.4z M768.7,125.6c0-9.8-6.5-16.8-15.7-16.8c-9.5,0-19.6,7.3-19.6,20.8
				c0,9.7,6.3,16.5,15.6,16.5C758.3,146.1,768.7,138.9,768.7,125.6z"/>
			<path d="M850.6,96.2l-6.6,62.6h-10.8l-25.5-36.5l-4,36.5h-14.4l6.6-62.6h11l25.3,36.5l4-36.5H850.6z"/>
		</g>
		<g>
			<path class="st4" d="M584.4,204.2l-8.2,18.6l-3.1,6.8h-2.9l3.3-7.3l-7.9-18.1h3l6.4,14.8l6.4-14.8H584.4z"/>
			<path class="st4" d="M604.4,213.6c0,6.4-5.3,9.6-9.5,9.6c-4.3,0-9.6-3.2-9.6-9.6c0-6.5,5.3-9.7,9.6-9.7
				C599.1,203.9,604.4,207.1,604.4,213.6z M588.1,213.6c0,4.7,3.6,7,6.7,7c3,0,6.7-2.3,6.7-7c0-4.8-3.6-7.1-6.7-7.1
				C591.7,206.5,588.1,208.8,588.1,213.6z"/>
			<path class="st4" d="M607.1,215v-10.8h2.9V215c0,3.9,2.3,5.7,5,5.7c3.6,0,5.5-3.2,5.8-5.1v-11.3h2.9v18.6h-2.9v-4.1
				c-0.4,1.1-2.4,4.5-6.7,4.5C610.7,223.2,607.1,220.8,607.1,215z"/>
			<path class="st4" d="M638.7,204v2.8c-0.3-0.1-0.6-0.1-0.9-0.1c-3.5,0-6.4,2.5-6.9,6.7v9.4h-2.9v-18.6h2.9v4.9
				c0.7-2.8,3.2-5.2,6.9-5.2C638.1,203.9,638.4,203.9,638.7,204z"/>
			<path class="st4" d="M668.1,213.6c0,6.4-5.3,9.6-9.5,9.6c-4.3,0-9.6-3.2-9.6-9.6c0-6.5,5.3-9.7,9.6-9.7
				C662.8,203.9,668.1,207.1,668.1,213.6z M651.8,213.6c0,4.7,3.6,7,6.7,7c3,0,6.7-2.3,6.7-7c0-4.8-3.6-7.1-6.7-7.1
				C655.5,206.5,651.8,208.8,651.8,213.6z"/>
			<path class="st4" d="M700.3,204.2l-7.1,18.6h-2.5l-6-15.3l-6,15.3h-2.5l-7.2-18.6h2.9l5.5,14.8l5.9-14.8h2.6l5.9,14.8l5.5-14.8
				H700.3z"/>
			<path class="st4" d="M720,212v10.8H717v-10.7c0-3.9-2.3-5.7-5-5.7c-3.6,0-5.5,3.2-5.8,5.1v11.3h-2.9v-18.6h2.9v4.1
				c0.4-1.1,2.4-4.5,6.7-4.5C716.5,203.9,720,206.3,720,212z"/>
			<path class="st4" d="M749.2,208.4l-2.4,1c-1.2-1.9-3.1-2.9-5.5-2.9c-3.1,0-6.7,2.3-6.7,7.1c0,4.7,3.6,7,6.7,7
				c2.5,0,4.4-1,5.5-2.9l2.4,1c-1.6,3-4.5,4.5-7.9,4.5c-4.2,0-9.5-3.2-9.5-9.6c0-6.5,5.3-9.7,9.5-9.7
				C744.6,203.9,747.6,205.4,749.2,208.4z"/>
			<path class="st4" d="M770.3,213.6c0,6.4-5.3,9.6-9.5,9.6c-4.3,0-9.6-3.2-9.6-9.6c0-6.5,5.3-9.7,9.6-9.7
				C765,203.9,770.3,207.1,770.3,213.6z M754,213.6c0,4.7,3.6,7,6.7,7c3,0,6.7-2.3,6.7-7c0-4.8-3.6-7.1-6.7-7.1
				C757.7,206.5,754,208.8,754,213.6z"/>
			<path class="st4" d="M790.2,212v10.8h-2.9v-10.7c0-3.9-2.3-5.7-5-5.7c-3.6,0-5.5,3.2-5.8,5.1v11.3h-2.9v-18.6h2.9v4.1
				c0.4-1.1,2.4-4.5,6.7-4.5C786.7,203.9,790.2,206.3,790.2,212z"/>
			<path class="st4" d="M797.9,206.7v12c0,1.1,0.5,1.8,1.8,1.8c0.6,0,1.4-0.1,2.1-0.5v2.4c-0.8,0.4-1.7,0.6-2.9,0.6
				c-2.2,0-3.9-0.9-3.9-3.7v-12.7h-2.6v-2.5h2.6v-4.8h2.9v4.8h3.9v2.5H797.9z"/>
			<path class="st4" d="M822,214.6h-15.6c0.5,4,3.6,6,6.9,6c2.5,0,4.2-0.7,5.6-2.1l1.7,1.6c-1.7,2-4.1,3-7.4,3
				c-4.7,0-9.8-3.2-9.8-9.6c0-6.5,5.2-9.7,9.4-9.7C817.1,203.9,822.8,207.1,822,214.6z M806.4,212.4h13c-0.3-4-3.7-6-6.5-6
				C810.2,206.4,807,208.4,806.4,212.4z"/>
			<path class="st4" d="M842,212v10.8h-2.9v-10.7c0-3.9-2.3-5.7-5-5.7c-3.6,0-5.5,3.2-5.8,5.1v11.3h-2.9v-18.6h2.9v4.1
				c0.4-1.1,2.4-4.5,6.7-4.5C838.5,203.9,842,206.3,842,212z"/>
			<path class="st4" d="M849.7,206.7v12c0,1.1,0.5,1.8,1.8,1.8c0.6,0,1.4-0.1,2.1-0.5v2.4c-0.8,0.4-1.7,0.6-2.9,0.6
				c-2.2,0-3.9-0.9-3.9-3.7v-12.7h-2.6v-2.5h2.6v-4.8h2.9v4.8h3.9v2.5H849.7z"/>
		</g>
	</g>
</g>
</svg>
